<?xml version="1.0" standalone="no"?>
<!DOCTYPE svg PUBLIC "-//W3C//DTD SVG 20010904//EN"
 "http://www.w3.org/TR/2001/REC-SVG-20010904/DTD/svg10.dtd">
<svg version="1.0" xmlns="http://www.w3.org/2000/svg"
 width="512.000000pt" height="512.000000pt" viewBox="0 0 512.000000 512.000000"
 preserveAspectRatio="xMidYMid meet">
<metadata>
Created by potrace 1.16, written by Peter Selinger 2001-2019
</metadata>
<g transform="translate(0.000000,512.000000) scale(0.100000,-0.100000)"
fill="#000000" stroke="none">
<path d="M4415 5100 c-74 -23 -155 -79 -205 -140 -20 -25 -423 -666 -895
-1425 -471 -759 -860 -1384 -865 -1388 -4 -4 -137 178 -296 405 -159 227 -313
437 -341 466 -32 33 -78 65 -120 85 -64 30 -74 32 -183 32 -135 -1 -194 -19
-275 -86 -110 -91 -165 -208 -165 -348 1 -145 -6 -134 545 -921 275 -393 521
-736 548 -762 26 -26 77 -62 114 -80 65 -32 72 -33 188 -33 120 0 122 0 197
38 53 26 91 53 125 91 43 48 2087 3319 2155 3449 127 244 -10 552 -277 623
-71 19 -179 16 -250 -6z"/>
<path d="M2375 4779 c-574 -31 -1131 -284 -1547 -703 -364 -366 -594 -829
-675 -1356 -24 -159 -24 -501 0 -660 87 -571 350 -1066 766 -1443 376 -342
844 -553 1349 -607 160 -18 523 -7 662 19 411 76 759 231 1080 480 104 80 306
280 384 380 266 336 437 724 503 1143 14 86 18 172 18 358 0 266 -10 352 -65
580 -44 178 -153 462 -170 443 -4 -4 -84 -132 -178 -283 l-171 -276 19 -94
c95 -464 9 -947 -239 -1343 -278 -445 -707 -746 -1215 -853 -150 -32 -443 -44
-589 -24 -428 56 -790 234 -1092 534 -505 503 -678 1228 -454 1901 189 566
648 1018 1215 1194 183 57 280 72 504 78 176 4 222 2 330 -16 136 -22 261 -55
379 -101 59 -23 78 -27 87 -17 17 18 276 439 272 442 -13 12 -173 74 -281 110
-283 94 -575 131 -892 114z"/>
</g>
</svg>
